<svg id="visual" viewBox="0 0 900 600" width="900" height="600" xmlns="http://www.w3.org/2000/svg" xmlns:xlink="http://www.w3.org/1999/xlink" version="1.1"><path d="M0 458L15 445.2C30 432.3 60 406.7 90 399.8C120 393 150 405 180 418.2C210 431.3 240 445.7 270 446.7C300 447.7 330 435.3 360 433.7C390 432 420 441 450 436.5C480 432 510 414 540 410.2C570 406.3 600 416.7 630 428.7C660 440.7 690 454.3 720 449.2C750 444 780 420 810 413.2C840 406.3 870 416.7 885 421.8L900 427L900 601L885 601C870 601 840 601 810 601C780 601 750 601 720 601C690 601 660 601 630 601C600 601 570 601 540 601C510 601 480 601 450 601C420 601 390 601 360 601C330 601 300 601 270 601C240 601 210 601 180 601C150 601 120 601 90 601C60 601 30 601 15 601L0 601Z" fill="#888277"></path><path d="M0 500L15 488.3C30 476.7 60 453.3 90 453C120 452.7 150 475.3 180 485C210 494.7 240 491.3 270 479.5C300 467.7 330 447.3 360 439.8C390 432.3 420 437.7 450 448.5C480 459.3 510 475.7 540 486C570 496.3 600 500.7 630 503.2C660 505.7 690 506.3 720 501.2C750 496 780 485 810 482.8C840 480.7 870 487.3 885 490.7L900 494L900 601L885 601C870 601 840 601 810 601C780 601 750 601 720 601C690 601 660 601 630 601C600 601 570 601 540 601C510 601 480 601 450 601C420 601 390 601 360 601C330 601 300 601 270 601C240 601 210 601 180 601C150 601 120 601 90 601C60 601 30 601 15 601L0 601Z" fill="#715f5a"></path><path d="M0 485L15 482.2C30 479.3 60 473.7 90 472.2C120 470.7 150 473.3 180 479.2C210 485 240 494 270 497.8C300 501.7 330 500.3 360 494.8C390 489.3 420 479.7 450 479.8C480 480 510 490 540 491C570 492 600 484 630 477C660 470 690 464 720 463.2C750 462.3 780 466.7 810 478.2C840 489.7 870 508.3 885 517.7L900 527L900 601L885 601C870 601 840 601 810 601C780 601 750 601 720 601C690 601 660 601 630 601C600 601 570 601 540 601C510 601 480 601 450 601C420 601 390 601 360 601C330 601 300 601 270 601C240 601 210 601 180 601C150 601 120 601 90 601C60 601 30 601 15 601L0 601Z" fill="#554046"></path><path d="M0 546L15 540.8C30 535.7 60 525.3 90 518C120 510.7 150 506.3 180 506.7C210 507 240 512 270 517.7C300 523.3 330 529.7 360 526.3C390 523 420 510 450 508C480 506 510 515 540 519.7C570 524.3 600 524.7 630 529.7C660 534.7 690 544.3 720 540.7C750 537 780 520 810 514C840 508 870 513 885 515.5L900 518L900 601L885 601C870 601 840 601 810 601C780 601 750 601 720 601C690 601 660 601 630 601C600 601 570 601 540 601C510 601 480 601 450 601C420 601 390 601 360 601C330 601 300 601 270 601C240 601 210 601 180 601C150 601 120 601 90 601C60 601 30 601 15 601L0 601Z" fill="#302636"></path><path d="M0 559L15 558.3C30 557.7 60 556.3 90 558.5C120 560.7 150 566.3 180 569.8C210 573.3 240 574.7 270 576.3C300 578 330 580 360 578.7C390 577.3 420 572.7 450 571.8C480 571 510 574 540 576.5C570 579 600 581 630 577.8C660 574.7 690 566.3 720 560.7C750 555 780 552 810 549.8C840 547.7 870 546.3 885 545.7L900 545L900 601L885 601C870 601 840 601 810 601C780 601 750 601 720 601C690 601 660 601 630 601C600 601 570 601 540 601C510 601 480 601 450 601C420 601 390 601 360 601C330 601 300 601 270 601C240 601 210 601 180 601C150 601 120 601 90 601C60 601 30 601 15 601L0 601Z" fill="#001122"></path></svg>